<?xml version="1.0" encoding="utf-8"?>
<!-- Generator: Adobe Illustrator 24.0.0, SVG Export Plug-In . SVG Version: 6.00 Build 0)  -->
<svg version="1.1" id="Layer_1" xmlns="http://www.w3.org/2000/svg" xmlns:xlink="http://www.w3.org/1999/xlink" x="0px" y="0px"
	 viewBox="0 0 640 480" style="enable-background:new 0 0 640 480;" xml:space="preserve">
<style type="text/css">
	.st0{fill:#14213D;}
	.st1{fill:#E5E5E5;}
	.st2{fill:#648DE5;}
</style>
<g>
	<path class="st0" d="M571.22,385.24H62.06c-10.54,0-19.08-8.54-19.08-19.08V27.98c0-10.54,8.54-19.08,19.08-19.08h509.16
		c10.54,0,19.08,8.54,19.08,19.08v338.17C590.31,376.69,581.76,385.24,571.22,385.24z"/>
	<g>
		<path d="M571.22,380.24c-12.6,0-25.21,0-37.81,0c-31.5,0-62.99,0-94.49,0c-40.93,0-81.85,0-122.78,0c-40.89,0-81.78,0-122.67,0
			c-31.39,0-62.77,0-94.16,0c-9.2,0-18.39,0-27.59,0c-3.62,0-7.41,0.32-11.03-0.05c-12.78-1.3-12.72-13.02-12.72-22.52
			c0-11.19,0-22.39,0-33.58c0-37.35,0-74.71,0-112.06c0-40.12,0-80.23,0-120.35c0-20.97-0.23-41.96,0-62.94
			c0.11-10.07,7.82-14.84,16.85-14.84c6.59,0,13.18,0,19.77,0c27.7,0,55.4,0,83.1,0c39.67,0,79.34,0,119.01,0
			c41.6,0,83.21,0,124.81,0c34.68,0,69.35,0,104.03,0c17.79,0,35.58,0,53.37,0c9.17,0,16.3,5.4,16.38,15.19
			c0.06,7.31,0,14.63,0,21.94c0,33.53,0,67.07,0,100.6c0,41.49,0,82.98,0,124.46c0,27.52,0,55.04,0,82.56c0,2.24,0.02,4.49,0,6.73
			C585.22,373.55,579.55,379.94,571.22,380.24c-6.42,0.23-6.45,10.23,0,10c13.41-0.47,23.7-10.68,24.08-24.13
			c0.05-1.6,0-3.21,0-4.81c0-9.98,0-19.96,0-29.93c0-37.13,0-74.26,0-111.39c0-41.14,0-82.28,0-123.43c0-22.46,0.17-44.93,0-67.38
			c-0.11-14.3-10.55-25.12-24.97-25.26c-5.34-0.05-10.69,0-16.04,0c-26.58,0-53.16,0-79.74,0c-39.69,0-79.38,0-119.07,0
			c-42.7,0-85.4,0-128.1,0c-35.68,0-71.35,0-107.03,0c-18.59,0-37.18,0-55.78,0c-14.25,0-26.17,9.11-26.61,24.16
			c-0.17,5.72,0,11.46,0,17.18c0,32.75,0,65.49,0,98.24c0,42.1,0,84.2,0,126.3c0,29.18,0,58.36,0,87.54
			c0,10.05-0.16,19.82,8.47,27.14c6.72,5.71,14.29,5.77,22.37,5.77c22.05,0,44.11,0,66.16,0c37.33,0,74.66,0,111.99,0
			c42.89,0,85.78,0,128.67,0c38.17,0,76.35,0,114.52,0c23.75,0,47.5,0,71.25,0c3.27,0,6.54,0,9.82,0
			C577.66,390.24,577.67,380.24,571.22,380.24z"/>
	</g>
</g>
<g>
	<ellipse class="st0" cx="316.64" cy="449.74" rx="45.76" ry="25.57"/>
	<g>
		<path d="M265.88,449.74c0.55,16.86,18.77,25.66,33.13,28.72c18.39,3.93,41.06,2.39,56.71-9.02c12.25-8.93,15.8-24.22,4.51-35.63
			c-13.22-13.36-35.86-16.21-53.61-14.03C290.3,421.78,266.53,429.93,265.88,449.74c-0.21,6.44,9.79,6.43,10,0
			c0.4-12.01,17.11-17.33,26.55-19.23c14.66-2.96,32.1-1.73,45.16,6.11c4.22,2.53,8.92,6.41,9.72,11.6
			c0.73,4.81-2.32,8.96-5.81,11.91c-11.18,9.44-28.46,11.15-42.44,9.83c-10.78-1.02-32.71-6.07-33.18-20.22
			C275.67,443.32,265.67,443.29,265.88,449.74z"/>
	</g>
</g>
<g>
	<polyline class="st0" points="345.65,449.74 345.65,385.24 287.63,385.24 287.63,449.74 	"/>
	<g>
		<path d="M350.65,449.74c0-21.5,0-43,0-64.5c0-2.7-2.29-5-5-5c-19.34,0-38.68,0-58.02,0c-2.7,0-5,2.29-5,5c0,21.5,0,43,0,64.5
			c0,6.43,10,6.45,10,0c0-21.5,0-43,0-64.5c-1.67,1.67-3.33,3.33-5,5c19.34,0,38.68,0,58.02,0c-1.67-1.67-3.33-3.33-5-5
			c0,21.5,0,43,0,64.5C340.65,456.17,350.65,456.19,350.65,449.74L350.65,449.74z"/>
	</g>
</g>
<g>
	<path class="st1" d="M556.08,366.92H77.2c-9.7,0-17.57-7.87-17.57-17.57V44.79c0-9.7,7.87-17.57,17.57-17.57h478.88
		c9.7,0,17.57,7.87,17.57,17.57v304.55C573.65,359.05,565.79,366.92,556.08,366.92z"/>
	<g>
		<path d="M556.08,361.92c-11.49,0-22.97,0-34.46,0c-28.67,0-57.34,0-86.01,0c-37.66,0-75.32,0-112.98,0c-37.94,0-75.88,0-113.82,0
			c-30.1,0-60.21,0-90.31,0c-13.6,0-27.28,0.41-40.87,0c-7.24-0.22-12.7-5.24-13-12.59c-0.06-1.37,0-2.75,0-4.12
			c0-8.99,0-17.97,0-26.96c0-33.58,0-67.16,0-100.74c0-37.33,0-74.66,0-111.99c0-19.98-0.24-39.97,0-59.95
			c0.11-9.06,6.94-13.35,15.08-13.35c5.89,0,11.79,0,17.68,0c25.34,0,50.68,0,76.03,0c36.29,0,72.57,0,108.86,0
			c38.6,0,77.21,0,115.81,0c32.7,0,65.4,0,98.09,0c18.47,0,36.94,0,55.4,0c1.37,0,2.76-0.04,4.13,0
			c7.25,0.24,12.61,5.28,12.94,12.61c0.23,5.06,0,10.19,0,15.26c0,29.58,0,59.17,0,88.75c0,38.22,0,76.44,0,114.65
			c0,26.2,0,52.41,0,78.61c0,2.13,0.02,4.27,0,6.4C568.57,355.84,563.65,361.62,556.08,361.92c-6.41,0.25-6.45,10.25,0,10
			c12.58-0.48,22.18-9.97,22.57-22.61c0.05-1.5,0-3,0-4.5c0-9.39,0-18.78,0-28.17c0-34.7,0-69.4,0-104.1c0-37.68,0-75.36,0-113.04
			c0-18.18,0.61-36.48,0-54.65c-0.48-14.08-11.55-22.63-24.92-22.63c-6.02,0-12.04,0-18.06,0c-25.95,0-51.91,0-77.86,0
			c-37.25,0-74.5,0-111.76,0c-39.3,0-78.61,0-117.91,0c-32.59,0-65.18,0-97.76,0c-16.97,0-33.93,0-50.9,0
			c-13.34,0-24.42,8.61-24.85,22.64c-0.16,5.38,0,10.79,0,16.18c0,30.7,0,61.41,0,92.11c0,38.88,0,77.76,0,116.65
			c0,25.05,0,50.1,0,75.15c0,1.46-0.05,2.92,0,4.37c0.39,12.57,10,22.2,22.57,22.6c3.19,0.1,6.41,0,9.6,0c21.93,0,43.86,0,65.79,0
			c35.21,0,70.42,0,105.64,0c39.59,0,79.18,0,118.77,0c35.19,0,70.38,0,105.56,0c21.56,0,43.11,0,64.67,0c2.95,0,5.9,0,8.85,0
			C562.52,371.92,562.53,361.92,556.08,361.92z"/>
	</g>
</g>
<g>
	<g>
		<path class="st2" d="M188.7,272.92c11.98,13.07,45.58,46.14,99.24,55.73c90.69,16.19,157.04-49.28,163.36-55.73"/>
		<g>
			<path d="M185.17,276.45c29.69,32.31,70.18,54.04,113.98,58.8c45.52,4.95,91.02-10.07,128.14-36.02
				c9.73-6.81,19.21-14.28,27.55-22.77c4.51-4.6-2.55-11.67-7.07-7.07c-18.8,19.14-42.87,34.37-67.7,44.24
				c-47.02,18.69-99.44,16.17-143.67-8.95c-16.48-9.36-31.34-21.34-44.16-35.29C187.87,264.63,180.82,271.72,185.17,276.45
				L185.17,276.45z"/>
		</g>
	</g>
	<g>
		<g>
			<path d="M188.7,277.92c29.66,0,59.33,0,88.99,0c47.06,0,94.13,0,141.19,0c10.8,0,21.61,0,32.41,0c6.43,0,6.45-10,0-10
				c-29.66,0-59.33,0-88.99,0c-47.06,0-94.13,0-141.19,0c-10.8,0-21.61,0-32.41,0C182.27,267.92,182.26,277.92,188.7,277.92
				L188.7,277.92z"/>
		</g>
	</g>
</g>
<g>
	<g>
		<g>
			<path d="M304.05,211.3c8.4,0,16.79,0,25.19,0c6.43,0,6.45-10,0-10c-8.4,0-16.79,0-25.19,0C297.61,201.3,297.6,211.3,304.05,211.3
				L304.05,211.3z"/>
		</g>
	</g>
	<g>
		<g>
			<path d="M321.64,218.89c0-8.4,0-16.79,0-25.19c0-6.43-10-6.45-10,0c0,8.4,0,16.79,0,25.19
				C311.64,225.33,321.64,225.34,321.64,218.89L321.64,218.89z"/>
		</g>
	</g>
</g>
<g>
	<g>
		<path class="st2" d="M254.39,157.74h-56.33c-9.07,0-16.49-7.42-16.49-16.49v-18.92c0-9.07,7.42-16.49,16.49-16.49h56.33
			c9.07,0,16.49,7.42,16.49,16.49v18.92C270.88,150.32,263.46,157.74,254.39,157.74z"/>
		<g>
			<path d="M254.39,152.74c-13.56,0-27.12,0-40.68,0c-5.17,0-10.39,0.22-15.55,0c-5.31-0.23-10.03-3.53-11.28-8.87
				c-0.72-3.05-0.3-6.56-0.3-9.66c0-7.8-1.91-18.7,7.04-22.46c4.44-1.87,10.71-0.92,15.39-0.92c14.9,0,29.81-0.21,44.71,0
				c4.63,0.06,8.9,2.13,11.01,6.45c1.7,3.49,1.17,7.84,1.17,11.61C265.88,138.21,267.66,152.2,254.39,152.74
				c-6.41,0.26-6.45,10.26,0,10c13.5-0.55,21.49-11.04,21.49-23.93c0-9.3,1.76-20.68-3.88-28.74c-5.57-7.96-13.96-9.24-22.85-9.24
				c-9.62,0-19.23,0-28.85,0c-7.28,0-14.6-0.2-21.88,0c-12.27,0.34-21.47,9.47-21.85,21.75c-0.14,4.33,0,8.68,0,13.02
				c0,4.32-0.22,8.64,1.25,12.78c3.67,10.29,13.11,14.36,23.29,14.36c17.76,0,35.52,0,53.28,0
				C260.82,162.74,260.83,152.74,254.39,152.74z"/>
		</g>
	</g>
	<g>
		<circle cx="226.22" cy="131.4" r="6.97"/>
		<g>
			<path d="M238.19,131.4c-0.35-6.48-5.21-11.97-11.97-11.97c-6.54,0-11.9,5.48-11.97,11.97c-0.06,6.38,5.29,11.72,11.59,11.95
				C232.75,143.59,237.83,138.01,238.19,131.4c0.35-6.43-9.65-6.41-10,0c-0.14,2.54-3.93,2.55-3.93,0c0-2.56,3.79-2.53,3.93,0
				C228.53,137.8,238.53,137.84,238.19,131.4z"/>
		</g>
	</g>
</g>
<g>
	<g>
		<path class="st2" d="M435.82,156.97H378.3c-8.75,0-15.9-7.15-15.9-15.9v-19.33c0-8.75,7.15-15.9,15.9-15.9h57.51
			c8.75,0,15.9,7.15,15.9,15.9v19.33C451.72,149.81,444.56,156.97,435.82,156.97z"/>
		<g>
			<path d="M435.82,151.97c-13.45,0-26.9,0-40.35,0c-5.59,0-11.22,0.22-16.81,0c-4.62-0.18-8.77-2.49-10.53-6.97
				c-1.21-3.07-0.72-6.93-0.72-10.17c0-7.61-2.17-19.08,6.38-23c4.32-1.98,10.64-1,15.24-1c15.19,0,30.39-0.14,45.58,0
				c4.03,0.04,7.72,1.2,10.16,4.68c2.48,3.53,1.95,7.91,1.95,11.99C446.72,136.62,449.01,151.4,435.82,151.97
				c-6.41,0.28-6.45,10.28,0,10c7.36-0.32,14.05-3.78,17.92-10.19c2.61-4.33,2.98-9.03,2.98-13.93c0-9.74,1.83-21.39-4.85-29.43
				c-5.93-7.13-13.97-7.58-22.41-7.58c-9.76,0-19.51,0-29.27,0c-7.16,0-14.36-0.22-21.52,0c-12.15,0.38-20.92,9.38-21.25,21.48
				c-0.23,8.3-1.63,19.38,1.82,27.15c4.28,9.67,13.38,12.5,23.07,12.5c17.84,0,35.68,0,53.52,0
				C442.25,161.97,442.26,151.97,435.82,151.97z"/>
		</g>
	</g>
	<g>
		<circle cx="407.06" cy="131.79" r="6.97"/>
		<g>
			<path d="M419.03,131.79c-0.35-6.48-5.21-11.97-11.97-11.97c-6.54,0-11.9,5.48-11.97,11.97c-0.06,6.38,5.29,11.72,11.59,11.95
				C413.59,143.98,418.67,138.4,419.03,131.79c0.35-6.43-9.65-6.41-10,0c-0.14,2.54-3.93,2.55-3.93,0c0-2.56,3.79-2.53,3.93,0
				C409.37,138.19,419.37,138.23,419.03,131.79z"/>
		</g>
	</g>
</g>
</svg>
